
<svg version="1.1" id="Layer_1" xmlns="http://www.w3.org/2000/svg" xmlns:xlink="http://www.w3.org/1999/xlink" x="0px" y="0px"
	 width="100%" viewBox="0 0 1024 1024" enable-background="new 0 0 1024 1024" xml:space="preserve">
<path fill="#ff0b55" opacity="1.000000" stroke="none" 
	d="
M563.136902,382.927185 
	C581.121704,415.074371 598.859863,446.937775 616.834351,478.667267 
	C620.168823,484.553497 620.015686,489.832581 615.919739,494.851959 
	C605.911316,507.116791 594.869995,518.456787 583.923645,529.874634 
	C582.314697,531.552795 580.190063,531.941406 577.957825,531.945190 
	C567.296265,531.963196 556.634094,532.064575 545.973389,531.982544 
	C539.927795,531.936035 535.746643,527.660095 535.711670,521.559082 
	C535.644714,509.898254 535.691223,498.236572 535.743469,486.575500 
	C535.751404,484.807678 535.241760,482.531311 537.346802,481.713226 
	C539.443665,480.898315 540.546326,482.977478 541.835571,484.193634 
	C543.409851,485.678619 544.855713,487.307281 546.490723,488.718994 
	C550.840149,492.474518 555.562012,492.690277 559.070679,489.403717 
	C562.668030,486.034027 563.038452,481.257874 559.434143,476.843201 
	C548.891174,463.929871 539.542480,450.117706 529.205750,437.060516 
	C526.040955,433.062805 523.933716,428.621613 521.774475,424.127106 
	C520.065613,420.570068 517.367065,418.181396 513.281555,418.117340 
	C509.160522,418.052795 506.141266,420.465179 504.664276,423.961578 
	C499.124268,437.076477 489.183136,447.138031 481.122986,458.490295 
	C476.501404,464.999573 471.226471,471.041229 466.380493,477.396271 
	C462.932373,481.918091 463.094238,486.109436 466.537476,489.506683 
	C469.680969,492.608124 474.922150,492.908325 478.898895,489.927734 
	C480.736877,488.550110 482.192383,486.664062 483.831696,485.018921 
	C485.307770,483.537567 486.367249,481.386749 489.054810,481.711945 
	C490.953735,483.017242 490.274963,485.020752 490.280090,486.731201 
	C490.327942,502.723663 490.319214,518.716431 490.284943,534.708984 
	C490.270447,541.464600 486.574432,545.206665 479.908203,545.335999 
	C478.409454,545.365112 476.869568,545.118103 475.416626,545.378174 
	C461.573669,547.856262 451.534119,542.626160 442.857208,531.690857 
	C434.503540,521.162842 424.482086,511.960052 415.216766,502.152985 
	C407.089172,493.550140 406.576172,487.816284 412.205658,477.592377 
	C434.372681,437.334045 456.412018,397.005463 478.512604,356.710541 
	C483.477173,347.658905 488.350403,338.552643 493.524231,329.621307 
	C503.325531,312.701752 523.980835,312.660828 533.721375,329.705414 
	C543.716736,347.195892 553.241211,364.955383 563.136902,382.927185 
z"/>
<path fill="#f1f1f1" opacity="1.000000" stroke="none" 
	d="
M620.173096,629.928711 
	C609.738220,629.729065 609.737915,629.729065 609.732483,620.005371 
	C609.731567,618.338989 609.845032,616.664185 609.717163,615.007812 
	C609.274841,609.277344 609.338562,604.480042 616.985168,603.048950 
	C621.566162,602.191528 623.393311,596.572327 622.027222,592.030945 
	C620.584229,587.233948 616.213379,584.503662 611.244995,585.295776 
	C606.663269,586.026245 603.072937,590.215698 603.478455,595.438538 
	C604.112427,603.604248 603.470215,611.743103 603.499634,619.890076 
	C603.511780,623.247009 604.861145,627.696045 599.881958,629.165710 
	C594.175354,630.850037 590.453125,629.055664 587.702881,623.553589 
	C584.798523,617.742920 581.805298,611.970398 579.110413,606.062866 
	C575.681946,598.547119 577.677551,593.036865 582.626892,586.444397 
	C591.310791,574.877686 602.159302,570.305786 616.278198,572.621948 
	C619.037109,573.074524 621.939941,572.813904 624.764160,572.658997 
	C627.925110,572.485535 630.349182,573.221130 632.671021,575.749878 
	C636.559875,579.985291 642.683105,579.849670 646.464233,576.037231 
	C650.373169,572.095703 650.447266,566.167542 646.630859,562.695557 
	C642.609497,559.037109 636.026123,559.230347 632.362244,563.644409 
	C630.137573,566.324524 627.590881,566.941528 624.492188,566.934448 
	C615.827332,566.914490 607.160889,567.023376 598.498230,566.884338 
	C594.754761,566.824280 591.524658,567.600830 589.285828,570.766602 
	C580.939087,582.568970 569.830139,587.504517 555.363770,585.196716 
	C550.811279,584.470520 546.048950,584.988586 541.384460,585.057922 
	C537.526550,585.115173 535.569824,583.705688 535.634521,579.482605 
	C535.797791,568.820557 535.617371,558.153687 535.690491,547.489563 
	C535.727539,542.083801 539.647461,538.014465 544.985168,537.901062 
	C551.647217,537.759521 558.314697,537.857056 564.979736,537.879578 
	C567.350403,537.887634 569.512390,538.524902 571.629883,539.704346 
	C577.405151,542.921204 580.860413,542.403992 585.376038,537.549683 
	C595.360352,526.816406 605.151245,515.902039 615.205688,505.235565 
	C623.803467,496.114380 626.539490,496.814087 632.605896,507.803345 
	C651.041321,541.198792 669.316284,574.694763 688.508423,607.653931 
	C695.185852,619.121155 687.977661,630.841431 675.130554,630.235779 
	C657.006165,629.381226 638.813965,629.963989 620.173096,629.928711 
M634.707764,611.213806 
	C632.252563,611.902222 631.878540,613.744995 632.196045,615.890076 
	C632.440002,617.538452 633.427246,618.581116 635.118408,618.786743 
	C637.074036,619.024536 638.970459,618.692627 639.470703,616.508850 
	C640.195801,613.343628 638.863708,611.386047 634.707764,611.213806 
z"/>
<path fill="#f1f1f1" opacity="1.000000" stroke="none" 
	d="
M362.896515,568.961975 
	C374.682343,547.473511 387.039917,526.718262 397.885773,505.132568 
	C400.250427,500.426422 404.367340,499.759674 408.390625,503.671112 
	C412.804718,507.962494 416.891541,512.589294 421.151428,517.040771 
	C431.170593,527.510620 441.266632,537.907898 451.194977,548.462952 
	C453.563904,550.981384 456.098969,552.063416 459.532837,551.966125 
	C466.357483,551.772827 473.190918,551.877991 480.020721,551.883667 
	C487.774597,551.890015 490.301178,554.355652 490.312988,561.917969 
	C490.322601,568.081421 490.239716,574.245911 490.329102,580.407959 
	C490.374847,583.562622 488.936371,585.051697 485.868561,585.072327 
	C475.374725,585.142761 464.880829,585.200562 454.386902,585.254272 
	C452.026489,585.266357 450.304474,583.915222 448.745972,582.391602 
	C445.292389,579.015198 441.730469,575.724121 438.544983,572.105713 
	C434.950439,568.022583 430.531219,566.404602 425.272186,566.414307 
	C417.776276,566.428040 410.279297,566.301331 402.784668,566.392639 
	C399.497864,566.432678 396.932129,565.791382 394.377625,563.232788 
	C389.096527,557.943176 380.579163,559.216614 377.956360,565.348328 
	C376.175598,569.511536 376.514923,573.532837 380.109467,576.756287 
	C383.255859,579.577820 389.201324,580.354248 392.026672,577.116760 
	C397.428009,570.927612 404.134583,572.045227 410.849060,572.209656 
	C412.844421,572.258484 414.892273,572.815430 416.820221,572.518066 
	C426.323456,571.052063 433.573273,574.665344 439.575836,581.811218 
	C442.460236,585.244934 445.885437,588.218689 448.883118,591.564331 
	C452.378693,595.465698 452.869873,599.681335 450.117188,604.389465 
	C446.084381,611.287048 442.130249,618.246948 438.530823,625.376282 
	C435.752441,630.879517 431.000336,629.575989 426.769714,629.116150 
	C422.417633,628.643127 422.914001,624.659668 422.990051,621.593750 
	C423.200256,613.118530 422.359131,604.635864 423.577301,596.157959 
	C424.379700,590.573914 420.427124,586.084595 414.783234,585.402344 
	C410.220184,584.850647 405.468262,588.023682 404.470398,592.288635 
	C403.234497,597.570862 406.258514,603.479126 411.581482,604.211121 
	C416.387726,604.872009 417.124054,607.306641 417.020355,611.238647 
	C416.901825,615.732117 417.041199,620.232422 417.066345,624.729736 
	C417.085876,628.218140 415.400116,629.935486 411.860962,629.901794 
	C391.222198,629.705444 370.583191,629.534485 349.944183,629.360535 
	C346.307648,629.329834 343.026489,628.369751 340.441498,625.677185 
	C336.452942,621.522644 335.998352,616.718323 339.173218,611.059692 
	C346.994781,597.119202 354.871155,583.209534 362.896515,568.961975 
M375.760651,611.245789 
	C373.590607,614.127991 373.352661,616.802063 376.989441,618.584045 
	C378.565613,619.356201 380.292969,618.878540 381.557190,617.518005 
	C383.016357,615.947571 382.887329,614.170715 381.921631,612.440063 
	C380.626709,610.119385 378.640472,609.880981 375.760651,611.245789 
M357.714142,616.864380 
	C360.931000,616.897949 362.030853,615.022034 361.922363,612.128052 
	C361.845734,610.083252 360.887939,608.689392 358.745575,608.419128 
	C356.205444,608.098633 354.677826,609.511169 353.907715,611.697815 
	C352.921448,614.498108 354.411407,616.006897 357.714142,616.864380 
z"/>
<path fill="#f1f1f1" opacity="1.000000" stroke="none" 
	d="
M496.769226,535.543091 
	C496.820862,515.604492 496.852692,496.117188 496.980896,476.630493 
	C497.001099,473.563293 496.608002,470.881531 494.769440,468.192993 
	C490.788239,462.371124 491.294525,456.150879 495.611389,450.379608 
	C497.505890,447.846802 499.620270,445.412628 501.096893,442.646515 
	C504.431793,436.399231 509.382965,434.387482 516.289429,435.139526 
	C519.278809,435.465057 521.273926,436.307800 522.907410,438.649231 
	C525.954529,443.017181 529.098145,447.317719 532.160889,451.674927 
	C535.255920,456.078094 535.588196,463.341888 532.349854,467.590271 
	C529.946594,470.742981 529.306091,473.992462 529.340576,477.800964 
	C529.470154,492.123779 529.354431,506.448700 529.393372,520.772644 
	C529.400391,523.355957 528.976624,525.500061 527.035583,527.546448 
	C522.395325,532.438721 522.221436,536.060669 526.619507,541.125000 
	C528.804504,543.641052 529.396240,546.195618 529.362305,549.298706 
	C529.264038,558.291931 529.320679,567.286682 529.296753,576.280884 
	C529.276367,583.949219 528.425903,585.050171 522.594604,585.087036 
	C516.908813,585.122986 516.117859,584.148743 516.090515,576.091797 
	C516.012451,553.106812 516.007751,530.121521 515.978394,507.136353 
	C515.963745,495.643677 516.009644,484.150604 515.913513,472.658661 
	C515.888611,469.682281 516.426086,467.390045 518.942322,465.260406 
	C523.528931,461.378479 523.871704,455.950073 520.380737,452.017975 
	C517.172668,448.404541 510.940613,448.114410 507.281128,451.408142 
	C503.404724,454.897095 503.115143,460.340546 507.148224,464.756561 
	C509.355835,467.173828 510.258698,469.573975 510.249603,472.754730 
	C510.149872,507.731995 510.160156,542.709595 510.081543,577.686890 
	C510.067017,584.158020 508.550110,585.410095 502.463440,585.100037 
	C498.583954,584.902405 496.700714,583.239929 496.764282,579.226379 
	C496.864471,572.899170 496.765564,566.568604 496.724060,560.239624 
	C496.712677,558.501038 497.280640,557.109497 498.388153,555.703308 
	C502.987030,549.864319 503.024506,546.510437 498.569061,540.497375 
	C497.529114,539.093872 496.736115,537.752930 496.769226,535.543091 
z"/>
<path fill="#ff0b55" opacity="1.000000" stroke="none" 
	d="
M617.445679,595.756714 
	C616.342651,598.685852 614.368896,599.583984 611.790283,599.108093 
	C609.944336,598.767395 609.000061,597.409302 608.784607,595.603821 
	C608.437073,592.690979 609.707520,590.490112 612.563965,590.136047 
	C616.159729,589.690186 617.512512,592.075317 617.445679,595.756714 
z"/>
<path fill="#ff0b55" opacity="1.000000" stroke="none" 
	d="
M382.381836,570.649780 
	C382.281677,566.566772 384.175385,564.555481 387.831116,565.129028 
	C390.504669,565.548401 391.521423,567.771545 391.120117,570.405273 
	C390.815460,572.404724 389.489746,573.684143 387.532959,574.045227 
	C385.050415,574.503357 383.433594,573.254700 382.381836,570.649780 
z"/>
<path fill="#ff0b55" opacity="1.000000" stroke="none" 
	d="
M641.548706,573.688477 
	C638.509827,574.491394 636.585205,573.494507 635.767639,570.915527 
	C635.197815,569.118225 635.415955,567.263794 637.134277,566.010437 
	C639.113831,564.566528 641.239319,564.342224 642.906250,566.298340 
	C645.149536,568.930786 644.651855,571.438599 641.548706,573.688477 
z"/>
<path fill="#ff0b55" opacity="1.000000" stroke="none" 
	d="
M414.777740,599.253479 
	C411.164856,599.208801 409.484314,597.581543 409.596680,594.333923 
	C409.670044,592.213745 410.939911,591.024597 412.987701,590.724182 
	C415.354980,590.377014 417.376404,591.014099 418.114960,593.488892 
	C418.924835,596.202820 418.302856,598.417725 414.777740,599.253479 
z"/>
<path fill="#ff0b55" opacity="1.000000" stroke="none" 
	d="
M509.180420,457.324463 
	C512.076782,452.916931 515.024353,452.327362 516.843567,455.482452 
	C517.726196,457.013153 517.856506,458.681702 516.813904,460.194855 
	C515.921082,461.490540 514.590210,462.295258 512.984375,462.087372 
	C510.488098,461.764221 509.240631,460.177246 509.180420,457.324463 
z"/>
</svg>